<?xml version="1.0" encoding="UTF-8"?>

<svg version="1.2" baseProfile="tiny" width="133.11mm" height="133.11mm" viewBox="4139 7314 13311 13311" preserveAspectRatio="xMidYMid" fill-rule="evenodd" stroke-width="28.222" stroke-linejoin="round" xmlns="http://www.w3.org/2000/svg" xmlns:xlink="http://www.w3.org/1999/xlink" xml:space="preserve">
 <g visibility="visible" id="Slide_1">
  <g>
   <path fill="rgb(0,0,0)" stroke="none" d="M 16499,13970 C 15920,13970 15645,14377 15549,14809 15201,16361 13726,18724 10795,18724 8169,18724 6040,16594 6040,13970 6040,11345 8169,9215 10795,9215 11859,9215 12836,9573 13628,10166 L 12696,10166 C 12171,10166 11745,10592 11745,11117 11745,11642 12171,12068 12696,12068 L 15549,12068 C 16073,12068 16499,11642 16499,11117 L 16499,8265 C 16499,7740 16074,7314 15549,7314 15025,7314 14598,7740 14598,8265 L 14598,8511 C 13520,7757 12209,7314 10795,7314 7119,7314 4139,10294 4139,13970 4139,17645 7119,20625 10795,20625 15539,20625 17450,16109 17450,14979 17450,14289 16945,13970 16499,13970 Z"/>
   <rect fill="none" stroke="none" x="4138" y="7313" width="13314" height="13314"/>
  </g>
 </g>
</svg>