<svg width="580" height="400" xmlns="http://www.w3.org/2000/svg">
 <!-- Created with Method Draw - http://github.com/duopixel/Method-Draw/ -->

 <g>
  <title>background</title>
  <rect fill="#fff" id="canvas_background" height="402" width="582" y="-1" x="-1"/>
 </g>
 <g>
  <title>Layer 1</title>
  <g stroke="null" id="svg_6">
   <path fill="#000000" stroke="null" id="svg_5" d="m461.476179,200.000008c-17.419122,0 -25.678558,12.213479 -28.579363,25.109434c-10.445757,46.408376 -54.77235,117.073091 -142.896816,117.073091c-78.921912,0 -142.896816,-63.669335 -142.896816,-142.182525s63.974905,-142.182525 142.896816,-142.182525c32.008887,0 61.374183,10.706344 85.166503,28.436505l-28.007776,0c-15.775809,0 -28.579363,12.739554 -28.579363,28.436505s12.803555,28.436505 28.579363,28.436505l85.73809,0c15.775809,0 28.579363,-12.739554 28.579363,-28.436505l0,-85.309515c0,-15.696951 -12.803555,-28.436505 -28.579363,-28.436505s-28.579363,12.739554 -28.579363,28.436505l0,7.365055c-32.394708,-22.550148 -71.777071,-35.80156 -114.317453,-35.80156c-110.487818,0 -200.055543,89.120007 -200.055543,199.055535s89.567725,199.055535 200.055543,199.055535c142.596733,0 200.055543,-135.073399 200.055543,-168.841748c0,-20.659121 -15.175642,-30.213787 -28.579363,-30.213787z"/>
  </g>
 </g>
</svg>